<svg xmlns="http://www.w3.org/2000/svg" width="83" height="36" fill="none"><path fill="#922230" d="M39.421 21.031a.723.723 0 0 0-.272.155c-.125.102-.132.536-.132 7.028 0 6.706.007 6.934.14 7.095.132.17.19.177.94.177 1.067-.008 1.096-.023 1.162-.772l.052-.587.507.477c.787.742 1.566 1.065 2.566 1.065 1.471 0 2.647-.734 3.302-2.071.448-.904.603-1.594.647-2.835.08-2.218-.375-3.753-1.404-4.7-.618-.573-1.324-.823-2.331-.823-.978 0-1.78.3-2.581.97l-.353.293v-2.607c0-3.151.117-2.872-1.206-2.894-.485-.007-.956.007-1.037.03zm5.088 6.552c.368.169.765.683.942 1.219.257.793.279 2.291.036 3.121-.125.441-.536 1.05-.867 1.286-.28.19-.383.22-.81.22-.646 0-.94-.147-1.61-.815l-.536-.53v-3.223l.441-.485c.78-.845 1.647-1.131 2.404-.793zm14.986-4.569c-.309.08-.33.154-.33 1.043 0 .47-.023.977-.045 1.124l-.051.279h-1.236l-.117.271c-.081.206-.103.448-.081.933.044.845.125.926.912.926h.544v.418c0 2.343.103 5.259.19 5.634.295 1.197.979 1.784 2.295 1.946.735.095 1.676-.007 2.125-.22.265-.125.33-.206.397-.456.096-.367.051-1.49-.066-1.608-.06-.059-.206-.044-.56.051-.918.25-1.462.03-1.654-.676-.05-.169-.08-1.219-.08-2.688V27.59h1.022c1.33 0 1.345-.008 1.39-.926.021-.485 0-.727-.082-.933l-.117-.271h-2.213v-1.087c0-1.41.036-1.366-1.206-1.389-.485-.007-.956.008-1.037.03zM30.67 25.356c-.28.051-.78.227-1.11.389-1.243.617-1.971 1.557-2.383 3.055-.154.573-.22 1.69-.147 2.52.206 2.291 1.25 3.657 3.199 4.171.705.184 2.514.191 3.198.008 1.184-.316 2.235-1.087 2.772-2.035.985-1.733.963-4.818-.037-6.36-.603-.918-1.544-1.535-2.69-1.756-.707-.132-2.104-.132-2.802.008zm2.206 2.078c.676.301 1.058.852 1.257 1.763.118.566.132 1.8.03 2.358-.17.888-.67 1.608-1.317 1.895-.419.183-1.507.161-1.89-.037-.875-.463-1.279-1.403-1.279-2.997 0-1.248.302-2.122.912-2.659.419-.367.662-.448 1.404-.455.42 0 .67.037.883.132zm19.523-2.077c-1.088.294-1.83.838-2.228 1.638-.22.448-.235.536-.235 1.22 0 .668.022.778.228 1.211.404.845 1.095 1.337 2.86 2.027.948.368 1.36.742 1.36 1.22 0 .389-.206.741-.53.91-.308.162-1.3.22-1.823.11-.213-.043-.72-.234-1.125-.425-.823-.39-.926-.382-1.03.095-.08.375-.014 1.146.126 1.41.147.28.934.632 1.78.793.764.14 1.948.11 2.632-.073 1.044-.286 1.875-.91 2.242-1.69.339-.734.331-1.901-.022-2.6-.39-.77-1.08-1.24-2.728-1.88-.485-.183-1.007-.44-1.154-.558-.684-.565-.397-1.52.5-1.66.566-.08 1.367.015 1.875.228.257.11.595.25.742.309.442.183.5.08.5-.83 0-.867-.044-.955-.61-1.198-.853-.367-2.485-.492-3.36-.257zm16.265.029c-2.36.617-3.647 2.953-3.324 6.044.228 2.27 1.235 3.548 3.199 4.062.801.213 2.69.191 3.706-.03.897-.205 1.507-.455 1.624-.668.045-.095.074-.44.06-.859-.03-.933-.037-.94-1.03-.632-1.037.316-1.618.404-2.552.368-.705-.022-.838-.044-1.22-.243-.706-.36-1.066-.97-1.162-1.96l-.037-.353h2.905c3.198 0 3.301-.015 3.478-.434.066-.169.08-.499.058-1.204-.029-.83-.066-1.058-.257-1.594-.478-1.388-1.294-2.137-2.72-2.504-.75-.191-1.986-.184-2.728.007zm1.992 1.77c.64.176 1.118.896 1.206 1.792l.044.477h-3.97l.066-.44c.118-.86.61-1.58 1.243-1.807.316-.117 1.044-.125 1.411-.022zm9.779-1.74c-.382.183-.963.698-1.404 1.256l-.228.294-.007-.676c0-.617-.015-.683-.155-.764-.382-.198-1.72-.162-1.94.059-.096.095-.111.712-.096 4.891l.021 4.789.221.103c.272.132 1.809.147 2.118.022l.198-.088v-5.964l.324-.456c.573-.8 1.147-1.219 1.676-1.219.125 0 .427.052.662.118.64.184.67.132.706-1.05.022-1.073-.03-1.256-.427-1.396-.455-.154-1.235-.117-1.669.08z"/><path fill="#BFBFBF" d="m18.887 21.218-2.883.029c-2.422.024-2.871.028-3.57.028-2.663 0-4.023-.043-5.41-.17-.62-.057-.896-.104-1.188-.203-.433-.146-.876-.453-1.266-.876a3.668 3.668 0 0 1-.729-1.193c-.22-.584-.296-1.237-.22-1.87.038-.311.113-.62.22-.903.045-.117.076-.188.135-.31a3.23 3.23 0 0 1 .447-.683c.057-.068.22-.24.286-.303.473-.445.984-.688 1.707-.814.401-.07.829-.105 1.75-.143l.123-.006c.002-.002-.01-3.776-.012-3.778a2.57 2.57 0 0 0-.277-.02c-.53-.02-1.617.069-2.223.181a6.782 6.782 0 0 0-2.38.904c-.834.52-1.535 1.227-2.117 2.13a7.952 7.952 0 0 0-1.244 5.079c.067.709.233 1.413.487 2.073a7.481 7.481 0 0 0 1.131 1.979c.14.173.25.3.424.48a6.721 6.721 0 0 0 1.94 1.405c.55.26 1.29.434 2.336.55.643.072 1.38.114 2.397.139 1.543.036 2.693.046 6.252.053 2.06.005 2.985.01 3.906.023l.089.001.001-1.892.001-1.891-.113.001z"/><path fill="#BFBFBF" d="m14.53 18.887-.027-2.883a358.317 358.317 0 0 1-.026-3.57c0-2.663.04-4.023.159-5.41.053-.62.097-.896.189-1.188.136-.433.423-.876.817-1.266.313-.31.698-.561 1.114-.729a3.504 3.504 0 0 1 1.746-.22 3.432 3.432 0 0 1 1.13.355c.24.126.437.264.64.447.063.057.223.22.281.286.416.473.643.984.76 1.707.066.401.098.829.134 1.75.002.067.006.123.006.123.002.002 3.523-.01 3.525-.012.005-.005.015-.157.02-.277.017-.53-.065-1.617-.17-2.223a7.081 7.081 0 0 0-.843-2.38 6.58 6.58 0 0 0-1.988-2.117C20.577.3 18.92-.134 17.257.036a6.882 6.882 0 0 0-3.782 1.618 6.11 6.11 0 0 0-.448.424 6.291 6.291 0 0 0-.603.714 6.82 6.82 0 0 0-.709 1.226c-.243.55-.405 1.29-.514 2.336a29.57 29.57 0 0 0-.129 2.397c-.033 1.543-.043 2.693-.05 6.252-.004 2.06-.01 2.985-.02 3.906l-.002.089 1.765.001 1.766.001-.001-.113z"/><path fill="#922230" d="m21.47 15.118.027 3.036c.023 2.55.026 3.022.026 3.758 0 2.803-.04 4.235-.159 5.694-.053.653-.097.944-.189 1.251-.137.455-.423.922-.817 1.332a3.335 3.335 0 0 1-3.702.767 2.77 2.77 0 0 1-.288-.141 2.97 2.97 0 0 1-.64-.47 5.515 5.515 0 0 1-.281-.302c-.416-.498-.643-1.035-.76-1.797-.066-.422-.098-.872-.133-1.841l-.007-.13c-.002-.003-3.523.01-3.525.012a3.03 3.03 0 0 0-.02.292c-.018.558.065 1.702.17 2.34.153.93.435 1.768.843 2.505a6.794 6.794 0 0 0 1.989 2.228c1.42 1.032 3.076 1.489 4.74 1.31a6.657 6.657 0 0 0 1.935-.513 6.834 6.834 0 0 0 2.897-2.388c.273-.393.525-.852.709-1.29.243-.58.405-1.358.514-2.46a32.74 32.74 0 0 0 .129-2.522c.034-1.624.043-2.835.05-6.582.004-2.168.01-3.142.02-4.111l.002-.094-1.765-.001L21.468 15l.001.118z"/><path fill="#BFBFBF" d="m17.113 13.782 2.883-.029c2.422-.025 2.871-.028 3.57-.028 2.663 0 4.023.043 5.41.17.62.057.896.104 1.188.203.433.146.876.453 1.266.876.31.335.561.747.729 1.193a3.994 3.994 0 0 1 0 2.773 3.14 3.14 0 0 1-.135.31 3.192 3.192 0 0 1-.447.683c-.057.068-.22.24-.286.302-.473.446-.984.69-1.707.815-.401.07-.829.105-1.75.143l-.123.006c-.002.002.01 3.775.012 3.778.005.004.157.016.277.02.53.02 1.617-.069 2.223-.181a6.78 6.78 0 0 0 2.38-.904c.834-.52 1.535-1.227 2.117-2.13a7.952 7.952 0 0 0 1.244-5.079 7.873 7.873 0 0 0-.487-2.073 7.487 7.487 0 0 0-1.131-1.979c-.14-.173-.25-.3-.424-.48a6.717 6.717 0 0 0-1.94-1.405c-.55-.26-1.29-.434-2.336-.55-.643-.072-1.38-.114-2.397-.138-1.543-.037-2.693-.047-6.252-.054-2.06-.005-2.985-.01-3.906-.023L17.002 10l-.001 1.892L17 13.783l.113-.001z"/></svg>